<?xml version="1.0" encoding="utf-8"?>
<!-- Generator: Adobe Illustrator 19.1.0, SVG Export Plug-In . SVG Version: 6.00 Build 0)  -->
<!DOCTYPE svg PUBLIC "-//W3C//DTD SVG 1.1//EN" "http://www.w3.org/Graphics/SVG/1.1/DTD/svg11.dtd">
<svg version="1.1" id="Layer_1" xmlns="http://www.w3.org/2000/svg" xmlns:xlink="http://www.w3.org/1999/xlink" x="0px" y="0px"
	 width="300px" height="300px" viewBox="0 0 300 300" style="enable-background:new 0 0 300 300;" xml:space="preserve">
<style type="text/css">
	.st0{fill:#5C5C5C;}
	.st1{opacity:0.4;fill:#292929;enable-background:new    ;}
	.st2{fill:#FFFFFF;}
	.st3{clip-path:url(#SVGID_2_);}
	.st4{fill:#8C8C8C;}
	.st5{opacity:0.4;}
	.st6{fill:#292929;}
</style>
<symbol  id="c" viewBox="-337 -4 674 8">
	<path class="st0" d="M336.3-4L-337,2.2L337,4L336.3-4z"/>
</symbol>
<symbol  id="d" viewBox="-408.9 -11 817.8 22">
	<path class="st1" d="M408.2,4l-817.1-15l817.8,22L408.2,4z"/>
</symbol>
<symbol  id="e" viewBox="-337 -4 674 8">
	<path class="st2" d="M336.3-4L-337,2.2L337,4L336.3-4z"/>
</symbol>
<symbol  id="f" viewBox="-57.3 -111.6 114.6 223.2">
	<path class="st1" d="M11.3,101.2V37.8l-22.6-5.1v63.4l-46-10.5v-162l46,10.5v0.6l22.6,5.1v-1.3l46,10.4v162.7L11.3,101.2z"/>
	<path class="st1" d="M29.7,62.5V-0.9l-9,5.6v63.4L2.4,79.5v-162l18.3-11.4v0.6l9-5.6v-1.3L48-111.6V51.1L29.7,62.5z"/>
</symbol>
<symbol  id="g" viewBox="-74.7 -111.6 149.4 223.2">
	<path class="st1" d="M14.7-101.2v63.4l-29.4,5.1v-63.4l-60,10.5v162l60-10.5v-0.6l29.4-5.1v1.3l60-10.4v-162.7L14.7-101.2z"/>
	<path class="st1" d="M38.7-62.5V0.9L27-4.7v-63.4L3.2-79.5v162L27,93.9v-0.6l11.7,5.6v1.3l23.9,11.4V-51.1L38.7-62.5z"/>
</symbol>
<g>
	<defs>
		<rect id="SVGID_1_" y="-0.2" width="300" height="300"/>
	</defs>
	<clipPath id="SVGID_2_">
		<use xlink:href="#SVGID_1_"  style="overflow:visible;"/>
	</clipPath>
	<g class="st3">
		<path class="st4" d="M0,0h300v300H0V0z"/>
		<path class="st2" d="M592.3,434.1L-762.8-915.3l1373,1293.6"/>
		
			<use xlink:href="#c"  width="674" height="8" x="-337" y="-4" transform="matrix(2 1.9 2.1 -7.1 -82.7 -246.4)" style="overflow:visible;"/>
		<path class="st2" d="M598.8,412.2L-723.9-761.7L614.5,361.9"/>
		
			<use xlink:href="#c"  width="674" height="8" x="-337" y="-4" transform="matrix(2 1.7 1.8 -6.4 -60.3 -180)" style="overflow:visible;"/>
		<path class="st2" d="M604.5,392.4L-683.1-625.5L618.2,347.2"/>
		
			<use xlink:href="#c"  width="674" height="8" x="-337" y="-4" transform="matrix(1.9 1.5 1.6 -5.8 -37.3 -121.2)" style="overflow:visible;"/>
		<path class="st2" d="M609.4,374.6L-641-504.8L621.4,334"/>
		
			<use xlink:href="#c"  width="674" height="8" x="-337" y="-4" transform="matrix(1.9 1.3 1.3 -5.2 -14 -69.3)" style="overflow:visible;"/>
		<path class="st2" d="M613.6,358.7L-598-398L624.1,322.2"/>
		
			<use xlink:href="#c"  width="674" height="8" x="-337" y="-4" transform="matrix(1.8 1.1 1.2 -4.7 9.4 -23.5)" style="overflow:visible;"/>
		<path class="st2" d="M617.3,344.3l-1171.8-648L626.4,311.5"/>
		
			<use xlink:href="#c"  width="674" height="8" x="-337" y="-4" transform="matrix(1.7 0.9 1 -4.2 32.9 16.9)" style="overflow:visible;"/>
		<path class="st2" d="M620.5,331.5l-1131.3-552L628.3,301.9"/>
		
			<use xlink:href="#c"  width="674" height="8" x="-337" y="-4" transform="matrix(1.7 0.8 0.8 -3.8 56.1 52.4)" style="overflow:visible;"/>
		<path class="st2" d="M623.1,319.9L-467.2-147.2L629.9,293.4"/>
		
			<use xlink:href="#c"  width="674" height="8" x="-337" y="-4" transform="matrix(1.6 0.7 0.7 -3.4 79.1 83.5)" style="overflow:visible;"/>
		<path class="st2" d="M625.4,309.5L-424-82.8L631.2,285.7"/>
		
			<use xlink:href="#c"  width="674" height="8" x="-337" y="-4" transform="matrix(1.6 0.6 0.6 -3 101.8 110.8)" style="overflow:visible;"/>
		<path class="st2" d="M627.3,300.2L-381.2-26.2l1013.5,305"/>
		
			<use xlink:href="#c"  width="674" height="8" x="-337" y="-4" transform="matrix(1.5 0.5 0.5 -2.7 124 134.7)" style="overflow:visible;"/>
		<path class="st2" d="M628.9,291.8l-968-268.6l972.2,249.4"/>
		
			<use xlink:href="#c"  width="674" height="8" x="-337" y="-4" transform="matrix(1.4 0.4 0.4 -2.4 145.7 155.5)" style="overflow:visible;"/>
		<path class="st2" d="M630.3,284.3L-297.9,66.5l931.7,200.6"/>
		
			<use xlink:href="#c"  width="674" height="8" x="-337" y="-4" transform="matrix(1.4 0.3 0.3 -2.2 166.9 173.5)" style="overflow:visible;"/>
		<path class="st2" d="M631.3,277.6l-888.9-173.5l891.9,158"/>
		
			<use xlink:href="#c"  width="674" height="8" x="-337" y="-4" transform="matrix(1.3 0.2 0.3 -2 187.5 189.2)" style="overflow:visible;"/>
		<path class="st2" d="M632.2,271.6l-850.5-134.8l852.9,120.9"/>
		
			<use xlink:href="#c"  width="674" height="8" x="-337" y="-4" transform="matrix(1.3 0.2 0.2 -1.7 207.5 202.7)" style="overflow:visible;"/>
		<path class="st2" d="M632.9,266.2l-813-101.1l814.9,88.6"/>
		
			<use xlink:href="#c"  width="674" height="8" x="-337" y="-4" transform="matrix(1.2 0.1 0.1 -1.6 226.9 214.3)" style="overflow:visible;"/>
		<path class="st2" d="M633.4,261.3l-776.5-71.8L635,250.2"/>
		
			<use xlink:href="#c"  width="674" height="8" x="-337" y="-4" transform="matrix(1.2 0.1 0.1 -1.4 245.6 224.2)" style="overflow:visible;"/>
		<path class="st2" d="M633.8,257l-741-46.6L635,247"/>
		
			<use xlink:href="#c"  width="674" height="8" x="-337" y="-4" transform="matrix(1.1 0.1 0.1 -1.3 263.7 232.6)" style="overflow:visible;"/>
		<path class="st2" d="M634,253.1l-706.6-24.8l707.5,15.9"/>
		
			<use xlink:href="#c"  width="674" height="8" x="-337" y="-4" transform="matrix(1 0 0 -1.1 281.1 239.7)" style="overflow:visible;"/>
		<path class="st2" d="M634.2,249.7l-673.4-6.2l674-1.8"/>
		
			<use xlink:href="#c"  width="674" height="8" x="-337" y="-4" transform="matrix(1 0 0 -1 297.8 245.7)" style="overflow:visible;"/>
		<g class="st5">
			<path class="st6" d="M900,365.8L-871.1-1581.7L920.4,305.4"/>
			
				<use xlink:href="#d"  width="817.8" height="22" x="-408.9" y="-11" transform="matrix(2.0997 2.4997 2.6997 -8.7989 24.595 -638.225)" style="overflow:visible;"/>
			<path class="st6" d="M906,345L-827.1-1353.3L924,290.7"/>
			
				<use xlink:href="#d"  width="817.8" height="22" x="-408.9" y="-11" transform="matrix(2.0997 2.1997 2.3997 -7.899 48.295 -531.41)" style="overflow:visible;opacity:0.4;"/>
			<path class="st6" d="M911.2,326.3l-1691-1476.7L927,277.4"/>
			
				<use xlink:href="#d"  width="817.8" height="22" x="-408.9" y="-11" transform="matrix(1.9998 1.8998 2.0997 -7.0991 73.5 -436.595)" style="overflow:visible;opacity:0.4;"/>
			<path class="st6" d="M915.7,309.5L-729.8-970.3L929.5,265.5"/>
			
				<use xlink:href="#d"  width="817.8" height="22" x="-408.9" y="-11" transform="matrix(1.9998 1.6998 1.7998 -6.3992 99.8 -352.485)" style="overflow:visible;opacity:0.4;"/>
			<path class="st6" d="M919.6,294.4L-677.9-810.7L931.7,254.8"/>
			
				<use xlink:href="#d"  width="817.8" height="22" x="-408.9" y="-11" transform="matrix(1.8998 1.4998 1.5998 -5.7993 126.805 -278.075)" style="overflow:visible;opacity:0.4;"/>
			<path class="st6" d="M922.9,280.8L-624.7-669.5L933.5,245.3"/>
			
				<use xlink:href="#d"  width="817.8" height="22" x="-408.9" y="-11" transform="matrix(1.8998 1.2998 1.2998 -5.1994 154.305 -212.165)" style="overflow:visible;opacity:0.4;"/>
			<path class="st6" d="M925.7,268.7L-570.6-544.6L935,236.7"/>
			
				<use xlink:href="#d"  width="817.8" height="22" x="-408.9" y="-11" transform="matrix(1.7998 1.0999 1.1999 -4.6994 182.11 -154.055)" style="overflow:visible;opacity:0.4;"/>
			<path class="st6" d="M928.2,257.7L-516-434.4L936.2,228.9"/>
			
				<use xlink:href="#d"  width="817.8" height="22" x="-408.9" y="-11" transform="matrix(1.6998 0.8999 0.9999 -4.1995 210.015 -102.745)" style="overflow:visible;opacity:0.4;"/>
			<path class="st6" d="M930.2,247.9L-461.5-337.2L937.1,222"/>
			
				<use xlink:href="#d"  width="817.8" height="22" x="-408.9" y="-11" transform="matrix(1.6998 0.7999 0.7999 -3.7995 237.715 -57.64)" style="overflow:visible;opacity:0.4;"/>
			<path class="st6" d="M931.9,239.1L-407.2-251.7L937.9,215.9"/>
			
				<use xlink:href="#d"  width="817.8" height="22" x="-408.9" y="-11" transform="matrix(1.5998 0.6999 0.6999 -3.3996 265.32 -17.935)" style="overflow:visible;opacity:0.4;"/>
			<path class="st6" d="M933.3,231.2L-353.4-176.6L938.4,210.3"/>
			
				<use xlink:href="#d"  width="817.8" height="22" x="-408.9" y="-11" transform="matrix(1.5998 0.5999 0.5999 -2.9996 292.42 16.77)" style="overflow:visible;opacity:0.4;"/>
			<path class="st6" d="M934.5,224.1L-300.4-110.8L938.8,205.4"/>
			
				<use xlink:href="#d"  width="817.8" height="22" x="-408.9" y="-11" transform="matrix(1.4998 0.4999 0.4999 -2.6997 319.125 47.275)" style="overflow:visible;opacity:0.4;"/>
			<path class="st6" d="M935.4,217.8L-248.4-53.3L939.1,200.9"/>
			
				<use xlink:href="#d"  width="817.8" height="22" x="-408.9" y="-11" transform="matrix(1.3998 0.4 0.4 -2.3997 345.33 73.78)" style="overflow:visible;opacity:0.4;"/>
			<path class="st6" d="M936.1,212.1L-197.5-3.1L939.3,197"/>
			
				<use xlink:href="#d"  width="817.8" height="22" x="-408.9" y="-11" transform="matrix(1.3998 0.3 0.3 -2.1997 370.83 96.885)" style="overflow:visible;opacity:0.4;"/>
			<path class="st6" d="M936.7,207L-147.8,40.5L939.3,193.4"/>
			
				<use xlink:href="#d"  width="817.8" height="22" x="-408.9" y="-11" transform="matrix(1.2998 0.2 0.3 -1.9998 395.735 116.99)" style="overflow:visible;opacity:0.4;"/>
			<path class="st6" d="M937.1,202.4L-99.4,78.4L939.2,190.3"/>
			
				<use xlink:href="#d"  width="817.8" height="22" x="-408.9" y="-11" transform="matrix(1.2998 0.2 0.2 -1.6998 419.835 134.29)" style="overflow:visible;opacity:0.4;"/>
			<path class="st6" d="M937.3,198.4L-52.5,111l991.6,76.5"/>
			
				<use xlink:href="#d"  width="817.8" height="22" x="-408.9" y="-11" transform="matrix(1.1999 9.998778e-02 9.998778e-02 -1.5998 443.24 149.195)" style="overflow:visible;opacity:0.4;"/>
			<path class="st6" d="M937.5,194.7L-7,139.1l945.9,45.8"/>
			
				<use xlink:href="#d"  width="817.8" height="22" x="-408.9" y="-11" transform="matrix(1.1999 9.998778e-02 9.998778e-02 -1.3998 465.94 161.995)" style="overflow:visible;opacity:0.4;"/>
			<path class="st6" d="M937.6,191.5L37,163.2l901.7,19.5"/>
			
				<use xlink:href="#d"  width="817.8" height="22" x="-408.9" y="-11" transform="matrix(1.0999 9.998778e-02 9.998778e-02 -1.2998 487.845 172.895)" style="overflow:visible;opacity:0.4;"/>
			<path class="st6" d="M937.6,188.6l-858.1-4.9l858.9-3"/>
			
				<use xlink:href="#d"  width="817.8" height="22" x="-408.9" y="-11" transform="matrix(0.9999 0 0 -1.0999 508.95 182.2)" style="overflow:visible;opacity:0.4;"/>
			<path class="st6" d="M937.5,186l-817.1,15l817.7-22.1"/>
			
				<use xlink:href="#d"  width="817.8" height="22" x="-408.9" y="-11" transform="matrix(0.9999 0 0 -0.9999 529.25 190)" style="overflow:visible;opacity:0.4;"/>
		</g>
		<path class="st2" d="M688.8,544.9L-666.3-804.5l1373,1293.6"/>
		
			<use xlink:href="#e"  width="674" height="8" x="-337" y="-4" transform="matrix(2 1.9 2.1 -7.1 13.8 -135.6)" style="overflow:visible;"/>
		<path class="st2" d="M695.3,523L-627.4-650.9L711,472.8"/>
		
			<use xlink:href="#e"  width="674" height="8" x="-337" y="-4" transform="matrix(2 1.7 1.8 -6.4 36.2 -69.2)" style="overflow:visible;"/>
		<path class="st2" d="M701,503.2L-586.6-514.6L714.7,458.1"/>
		
			<use xlink:href="#e"  width="674" height="8" x="-337" y="-4" transform="matrix(1.9 1.5 1.6 -5.8 59.2 -10.4)" style="overflow:visible;"/>
		<path class="st2" d="M705.9,485.5L-544.5-394L717.9,444.9"/>
		
			<use xlink:href="#e"  width="674" height="8" x="-337" y="-4" transform="matrix(1.9 1.3 1.3 -5.2 82.5 41.5)" style="overflow:visible;"/>
		<path class="st2" d="M710.1,469.5L-501.5-287.2L720.6,433"/>
		
			<use xlink:href="#e"  width="674" height="8" x="-337" y="-4" transform="matrix(1.8 1.1 1.2 -4.7 106 87.3)" style="overflow:visible;"/>
		<path class="st2" d="M713.8,455.2L-458-192.9L722.9,422.3"/>
		
			<use xlink:href="#e"  width="674" height="8" x="-337" y="-4" transform="matrix(1.7 0.9 1 -4.2 129.4 127.7)" style="overflow:visible;"/>
		<path class="st2" d="M717,442.3l-1131.3-552L724.8,412.8"/>
		
			<use xlink:href="#e"  width="674" height="8" x="-337" y="-4" transform="matrix(1.7 0.8 0.8 -3.8 152.6 163.2)" style="overflow:visible;"/>
		<path class="st2" d="M719.6,430.7L-370.7-36.4L726.4,404.2"/>
		
			<use xlink:href="#e"  width="674" height="8" x="-337" y="-4" transform="matrix(1.6 0.7 0.7 -3.4 175.6 194.4)" style="overflow:visible;"/>
		<path class="st2" d="M721.9,420.3L-327.5,28.1L727.7,396.5"/>
		
			<use xlink:href="#e"  width="674" height="8" x="-337" y="-4" transform="matrix(1.6 0.6 0.6 -3 198.3 221.7)" style="overflow:visible;"/>
		<path class="st2" d="M723.8,411L-284.7,84.6l1013.5,305"/>
		
			<use xlink:href="#e"  width="674" height="8" x="-337" y="-4" transform="matrix(1.5 0.5 0.5 -2.7 220.5 245.5)" style="overflow:visible;"/>
		<path class="st2" d="M725.4,402.7l-968-268.6l972.2,249.3"/>
		
			<use xlink:href="#e"  width="674" height="8" x="-337" y="-4" transform="matrix(1.4 0.4 0.4 -2.4 242.2 266.3)" style="overflow:visible;"/>
		<path class="st2" d="M726.8,395.1l-928.2-217.8l931.7,200.6"/>
		
			<use xlink:href="#e"  width="674" height="8" x="-337" y="-4" transform="matrix(1.4 0.3 0.3 -2.2 263.4 284.4)" style="overflow:visible;"/>
		<path class="st2" d="M727.8,388.4l-888.9-173.5L730.8,373"/>
		
			<use xlink:href="#e"  width="674" height="8" x="-337" y="-4" transform="matrix(1.3 0.2 0.3 -2 284 300)" style="overflow:visible;"/>
		<path class="st2" d="M728.7,382.4l-850.5-134.8l852.9,120.9"/>
		
			<use xlink:href="#e"  width="674" height="8" x="-337" y="-4" transform="matrix(1.3 0.2 0.2 -1.7 304 313.5)" style="overflow:visible;"/>
		<path class="st2" d="M729.4,377l-813-101.1l814.9,88.7"/>
		
			<use xlink:href="#e"  width="674" height="8" x="-337" y="-4" transform="matrix(1.2 0.1 0.1 -1.6 323.4 325.1)" style="overflow:visible;"/>
		<path class="st2" d="M729.9,372.2l-776.5-71.9L731.5,361"/>
		
			<use xlink:href="#e"  width="674" height="8" x="-337" y="-4" transform="matrix(1.2 0.1 0.1 -1.4 342.1 335)" style="overflow:visible;"/>
		<path class="st2" d="M730.3,367.8l-741-46.5l742.2,36.5"/>
		
			<use xlink:href="#e"  width="674" height="8" x="-337" y="-4" transform="matrix(1.1 0.1 0.1 -1.3 360.2 343.4)" style="overflow:visible;"/>
		<path class="st2" d="M730.5,364L23.9,339.1L731.4,355"/>
		
			<use xlink:href="#e"  width="674" height="8" x="-337" y="-4" transform="matrix(1 0 0 -1.1 377.6 350.5)" style="overflow:visible;"/>
		<path class="st2" d="M730.7,360.5l-673.4-6.2l674-1.8"/>
		
			<use xlink:href="#e"  width="674" height="8" x="-337" y="-4" transform="matrix(1 0 0 -1 394.3 356.5)" style="overflow:visible;"/>
		
			<use xlink:href="#f"  width="114.6" height="223.2" x="-57.3" y="-111.6" transform="matrix(0.7 -0.8 -0.8 -0.7 149.935 347.66)" style="overflow:visible;"/>
		
			<use xlink:href="#f"  width="114.6" height="223.2" x="-57.3" y="-111.6" transform="matrix(0.8 -0.7 -0.7 -0.7 141.94 343.765)" style="overflow:visible;"/>
		
			<use xlink:href="#f"  width="114.6" height="223.2" x="-57.3" y="-111.6" transform="matrix(0.9 -0.6 -0.6 -0.8 134.545 338.87)" style="overflow:visible;"/>
		
			<use xlink:href="#f"  width="114.6" height="223.2" x="-57.3" y="-111.6" transform="matrix(0.9 -0.5 -0.5 -0.9 127.845 333.275)" style="overflow:visible;"/>
		
			<use xlink:href="#f"  width="114.6" height="223.2" x="-57.3" y="-111.6" transform="matrix(1 -0.4 -0.4 -0.9 121.95 326.88)" style="overflow:visible;"/>
		
			<use xlink:href="#f"  width="114.6" height="223.2" x="-57.3" y="-111.6" transform="matrix(1 -0.2 -0.3 -1 116.85 319.89)" style="overflow:visible;"/>
		
			<use xlink:href="#f"  width="114.6" height="223.2" x="-57.3" y="-111.6" transform="matrix(1 -0.1 -0.1 -1 112.65 312.295)" style="overflow:visible;"/>
		
			<use xlink:href="#f"  width="114.6" height="223.2" x="-57.3" y="-111.6" transform="matrix(1.1 0 0 -1 109.555 304.3)" style="overflow:visible;"/>
		
			<use xlink:href="#f"  width="114.6" height="223.2" x="-57.3" y="-111.6" transform="matrix(0.7 -0.8 -0.8 -0.7 136.335 335.66)" style="overflow:visible;"/>
		
			<use xlink:href="#f"  width="114.6" height="223.2" x="-57.3" y="-111.6" transform="matrix(0.8 -0.7 -0.7 -0.7 128.44 331.765)" style="overflow:visible;"/>
		
			<use xlink:href="#f"  width="114.6" height="223.2" x="-57.3" y="-111.6" transform="matrix(0.9 -0.6 -0.6 -0.8 121.045 326.87)" style="overflow:visible;"/>
		
			<use xlink:href="#f"  width="114.6" height="223.2" x="-57.3" y="-111.6" transform="matrix(0.9 -0.5 -0.5 -0.9 114.445 321.275)" style="overflow:visible;"/>
		
			<use xlink:href="#f"  width="114.6" height="223.2" x="-57.3" y="-111.6" transform="matrix(1 -0.4 -0.4 -0.9 108.55 314.88)" style="overflow:visible;"/>
		
			<use xlink:href="#f"  width="114.6" height="223.2" x="-57.3" y="-111.6" transform="matrix(1 -0.2 -0.3 -1 103.45 307.89)" style="overflow:visible;"/>
		
			<use xlink:href="#f"  width="114.6" height="223.2" x="-57.3" y="-111.6" transform="matrix(1 -0.1 -0.1 -1 99.35 300.295)" style="overflow:visible;"/>
		
			<use xlink:href="#f"  width="114.6" height="223.2" x="-57.3" y="-111.6" transform="matrix(1 0 0 -1 96.25 292.3)" style="overflow:visible;"/>
		
			<use xlink:href="#f"  width="114.6" height="223.2" x="-57.3" y="-111.6" transform="matrix(0.7 -0.8 -0.8 -0.7 122.835 323.66)" style="overflow:visible;"/>
		
			<use xlink:href="#f"  width="114.6" height="223.2" x="-57.3" y="-111.6" transform="matrix(0.8 -0.7 -0.7 -0.7 114.94 319.765)" style="overflow:visible;"/>
		
			<use xlink:href="#f"  width="114.6" height="223.2" x="-57.3" y="-111.6" transform="matrix(0.8 -0.6 -0.6 -0.8 107.74 314.87)" style="overflow:visible;"/>
		
			<use xlink:href="#f"  width="114.6" height="223.2" x="-57.3" y="-111.6" transform="matrix(0.9 -0.5 -0.5 -0.9 101.145 309.275)" style="overflow:visible;"/>
		
			<use xlink:href="#f"  width="114.6" height="223.2" x="-57.3" y="-111.6" transform="matrix(1 -0.4 -0.4 -0.9 95.25 302.88)" style="overflow:visible;"/>
		
			<use xlink:href="#f"  width="114.6" height="223.2" x="-57.3" y="-111.6" transform="matrix(1 -0.2 -0.2 -1 90.25 295.89)" style="overflow:visible;"/>
		
			<use xlink:href="#f"  width="114.6" height="223.2" x="-57.3" y="-111.6" transform="matrix(1 -0.1 -0.1 -1 86.25 288.295)" style="overflow:visible;"/>
		
			<use xlink:href="#f"  width="114.6" height="223.2" x="-57.3" y="-111.6" transform="matrix(1 0 0 -1 83.15 280.3)" style="overflow:visible;"/>
		
			<use xlink:href="#f"  width="114.6" height="223.2" x="-57.3" y="-111.6" transform="matrix(0.7 -0.8 -0.8 -0.7 109.435 311.66)" style="overflow:visible;"/>
		
			<use xlink:href="#f"  width="114.6" height="223.2" x="-57.3" y="-111.6" transform="matrix(0.8 -0.7 -0.7 -0.7 101.64 307.765)" style="overflow:visible;"/>
		
			<use xlink:href="#f"  width="114.6" height="223.2" x="-57.3" y="-111.6" transform="matrix(0.8 -0.6 -0.6 -0.8 94.44 302.87)" style="overflow:visible;"/>
		
			<use xlink:href="#f"  width="114.6" height="223.2" x="-57.3" y="-111.6" transform="matrix(0.9 -0.5 -0.5 -0.9 87.945 297.275)" style="overflow:visible;"/>
		
			<use xlink:href="#f"  width="114.6" height="223.2" x="-57.3" y="-111.6" transform="matrix(1 -0.4 -0.4 -0.9 82.15 290.88)" style="overflow:visible;"/>
		
			<use xlink:href="#f"  width="114.6" height="223.2" x="-57.3" y="-111.6" transform="matrix(1 -0.2 -0.2 -1 77.25 283.89)" style="overflow:visible;"/>
		
			<use xlink:href="#f"  width="114.6" height="223.2" x="-57.3" y="-111.6" transform="matrix(1 -0.1 -0.1 -1 73.25 276.295)" style="overflow:visible;"/>
		
			<use xlink:href="#f"  width="114.6" height="223.2" x="-57.3" y="-111.6" transform="matrix(1 0 0 -1 70.15 268.3)" style="overflow:visible;"/>
		
			<use xlink:href="#f"  width="114.6" height="223.2" x="-57.3" y="-111.6" transform="matrix(0.7 -0.8 -0.8 -0.7 96.135 299.66)" style="overflow:visible;"/>
		
			<use xlink:href="#f"  width="114.6" height="223.2" x="-57.3" y="-111.6" transform="matrix(0.8 -0.7 -0.7 -0.7 88.54 295.765)" style="overflow:visible;"/>
		
			<use xlink:href="#f"  width="114.6" height="223.2" x="-57.3" y="-111.6" transform="matrix(0.8 -0.6 -0.6 -0.8 81.34 290.87)" style="overflow:visible;"/>
		
			<use xlink:href="#f"  width="114.6" height="223.2" x="-57.3" y="-111.6" transform="matrix(0.9 -0.5 -0.5 -0.9 74.945 285.275)" style="overflow:visible;"/>
		
			<use xlink:href="#f"  width="114.6" height="223.2" x="-57.3" y="-111.6" transform="matrix(0.9 -0.4 -0.4 -0.9 69.245 278.88)" style="overflow:visible;"/>
		
			<use xlink:href="#f"  width="114.6" height="223.2" x="-57.3" y="-111.6" transform="matrix(1 -0.2 -0.2 -1 64.35 271.89)" style="overflow:visible;"/>
		
			<use xlink:href="#f"  width="114.6" height="223.2" x="-57.3" y="-111.6" transform="matrix(1 -0.1 -0.1 -1 60.35 264.295)" style="overflow:visible;"/>
		
			<use xlink:href="#f"  width="114.6" height="223.2" x="-57.3" y="-111.6" transform="matrix(1 0 0 -1 57.25 256.3)" style="overflow:visible;"/>
		
			<use xlink:href="#f"  width="114.6" height="223.2" x="-57.3" y="-111.6" transform="matrix(0.7 -0.8 -0.8 -0.7 83.035 287.66)" style="overflow:visible;"/>
		
			<use xlink:href="#f"  width="114.6" height="223.2" x="-57.3" y="-111.6" transform="matrix(0.7431 -0.6691 0.6691 0.7431 75.4389 283.795)" style="overflow:visible;"/>
		
			<use xlink:href="#f"  width="114.6" height="223.2" x="-57.3" y="-111.6" transform="matrix(0.8 -0.6 -0.6 -0.8 68.44 278.87)" style="overflow:visible;"/>
		
			<use xlink:href="#f"  width="114.6" height="223.2" x="-57.3" y="-111.6" transform="matrix(0.9 -0.5 -0.5 -0.9 62.045 273.275)" style="overflow:visible;"/>
		
			<use xlink:href="#f"  width="114.6" height="223.2" x="-57.3" y="-111.6" transform="matrix(0.9 -0.4 -0.4 -0.9 56.345 266.88)" style="overflow:visible;"/>
		
			<use xlink:href="#f"  width="114.6" height="223.2" x="-57.3" y="-111.6" transform="matrix(1 -0.2 -0.2 -1 51.55 259.89)" style="overflow:visible;"/>
		
			<use xlink:href="#f"  width="114.6" height="223.2" x="-57.3" y="-111.6" transform="matrix(1 -0.1 -0.1 -1 47.55 252.295)" style="overflow:visible;"/>
		
			<use xlink:href="#f"  width="114.6" height="223.2" x="-57.3" y="-111.6" transform="matrix(1 0 0 -1 44.55 244.3)" style="overflow:visible;"/>
		
			<use xlink:href="#g"  width="149.4" height="223.2" x="-74.7" y="-111.6" transform="matrix(0.8994 -0.9993 -0.7995 -0.6995 372.255 408.15)" style="overflow:visible;"/>
		
			<use xlink:href="#g"  width="149.4" height="223.2" x="-74.7" y="-111.6" transform="matrix(0.9993 -0.7995 -0.6995 -0.6995 362.05 403.04)" style="overflow:visible;"/>
		
			<use xlink:href="#g"  width="149.4" height="223.2" x="-74.7" y="-111.6" transform="matrix(1.0993 -0.6995 -0.5996 -0.7995 352.545 396.935)" style="overflow:visible;"/>
		
			<use xlink:href="#g"  width="149.4" height="223.2" x="-74.7" y="-111.6" transform="matrix(1.1992 -0.5996 -0.4997 -0.8994 343.94 389.63)" style="overflow:visible;"/>
		
			<use xlink:href="#g"  width="149.4" height="223.2" x="-74.7" y="-111.6" transform="matrix(1.1992 -0.4997 -0.3997 -0.8994 336.34 381.425)" style="overflow:visible;"/>
		
			<use xlink:href="#g"  width="149.4" height="223.2" x="-74.7" y="-111.6" transform="matrix(1.2991 -0.2998 -0.2998 -0.9993 329.835 372.415)" style="overflow:visible;"/>
		
			<use xlink:href="#g"  width="149.4" height="223.2" x="-74.7" y="-111.6" transform="matrix(1.2991 -0.1999 -9.993307e-02 -0.9993 324.535 362.81)" style="overflow:visible;"/>
		
			<use xlink:href="#g"  width="149.4" height="223.2" x="-74.7" y="-111.6" transform="matrix(1.2991 0 0 -0.9993 320.535 352.5)" style="overflow:visible;"/>
		
			<use xlink:href="#g"  width="149.4" height="223.2" x="-74.7" y="-111.6" transform="matrix(0.8994 -0.9993 -0.7995 -0.6995 354.755 392.75)" style="overflow:visible;"/>
		
			<use xlink:href="#g"  width="149.4" height="223.2" x="-74.7" y="-111.6" transform="matrix(0.9993 -0.7995 -0.6995 -0.6995 344.65 387.74)" style="overflow:visible;"/>
		
			<use xlink:href="#g"  width="149.4" height="223.2" x="-74.7" y="-111.6" transform="matrix(1.0993 -0.6995 -0.5996 -0.7995 335.245 381.535)" style="overflow:visible;"/>
		
			<use xlink:href="#g"  width="149.4" height="223.2" x="-74.7" y="-111.6" transform="matrix(1.1992 -0.5996 -0.4997 -0.8994 326.74 374.33)" style="overflow:visible;"/>
		
			<use xlink:href="#g"  width="149.4" height="223.2" x="-74.7" y="-111.6" transform="matrix(1.1992 -0.4997 -0.3997 -0.8994 319.14 366.125)" style="overflow:visible;"/>
		
			<use xlink:href="#g"  width="149.4" height="223.2" x="-74.7" y="-111.6" transform="matrix(1.2991 -0.2998 -0.2998 -0.9993 312.735 357.115)" style="overflow:visible;"/>
		
			<use xlink:href="#g"  width="149.4" height="223.2" x="-74.7" y="-111.6" transform="matrix(1.2991 -0.1999 -9.993307e-02 -0.9993 307.435 347.41)" style="overflow:visible;"/>
		
			<use xlink:href="#g"  width="149.4" height="223.2" x="-74.7" y="-111.6" transform="matrix(1.2991 0 0 -0.9993 303.435 337.2)" style="overflow:visible;"/>
		
			<use xlink:href="#g"  width="149.4" height="223.2" x="-74.7" y="-111.6" transform="matrix(0.8994 -0.9993 -0.7995 -0.6995 337.355 377.45)" style="overflow:visible;"/>
		
			<use xlink:href="#g"  width="149.4" height="223.2" x="-74.7" y="-111.6" transform="matrix(0.9993 -0.7995 -0.6995 -0.6995 327.35 372.34)" style="overflow:visible;"/>
		
			<use xlink:href="#g"  width="149.4" height="223.2" x="-74.7" y="-111.6" transform="matrix(1.0993 -0.6995 -0.5996 -0.7995 318.045 366.235)" style="overflow:visible;"/>
		
			<use xlink:href="#g"  width="149.4" height="223.2" x="-74.7" y="-111.6" transform="matrix(1.0993 -0.5996 -0.4997 -0.8994 309.645 358.93)" style="overflow:visible;"/>
		
			<use xlink:href="#g"  width="149.4" height="223.2" x="-74.7" y="-111.6" transform="matrix(1.1992 -0.4997 -0.3997 -0.8994 302.14 350.725)" style="overflow:visible;"/>
		
			<use xlink:href="#g"  width="149.4" height="223.2" x="-74.7" y="-111.6" transform="matrix(1.2991 -0.2998 -0.1999 -0.9993 295.735 341.715)" style="overflow:visible;"/>
		
			<use xlink:href="#g"  width="149.4" height="223.2" x="-74.7" y="-111.6" transform="matrix(1.2991 -0.1999 -9.993307e-02 -0.9993 290.535 332.11)" style="overflow:visible;"/>
		
			<use xlink:href="#g"  width="149.4" height="223.2" x="-74.7" y="-111.6" transform="matrix(1.2991 0 0 -0.9993 286.635 321.8)" style="overflow:visible;"/>
		
			<use xlink:href="#g"  width="149.4" height="223.2" x="-74.7" y="-111.6" transform="matrix(0.7995 -0.9993 -0.7995 -0.6995 320.16 362.05)" style="overflow:visible;"/>
		
			<use xlink:href="#g"  width="149.4" height="223.2" x="-74.7" y="-111.6" transform="matrix(0.9993 -0.7995 -0.6995 -0.6995 310.25 357.04)" style="overflow:visible;"/>
		
			<use xlink:href="#g"  width="149.4" height="223.2" x="-74.7" y="-111.6" transform="matrix(1.0993 -0.6995 -0.5996 -0.7995 301.045 350.835)" style="overflow:visible;"/>
		
			<use xlink:href="#g"  width="149.4" height="223.2" x="-74.7" y="-111.6" transform="matrix(1.0993 -0.5996 -0.4997 -0.8994 292.745 343.63)" style="overflow:visible;"/>
		
			<use xlink:href="#g"  width="149.4" height="223.2" x="-74.7" y="-111.6" transform="matrix(1.1992 -0.4997 -0.3997 -0.8994 285.34 335.425)" style="overflow:visible;"/>
		
			<use xlink:href="#g"  width="149.4" height="223.2" x="-74.7" y="-111.6" transform="matrix(1.2991 -0.2998 -0.1999 -0.9993 279.035 326.415)" style="overflow:visible;"/>
		
			<use xlink:href="#g"  width="149.4" height="223.2" x="-74.7" y="-111.6" transform="matrix(1.2991 -0.1999 -9.993307e-02 -0.9993 273.835 316.71)" style="overflow:visible;"/>
		
			<use xlink:href="#g"  width="149.4" height="223.2" x="-74.7" y="-111.6" transform="matrix(1.2991 0 0 -0.9993 269.935 306.5)" style="overflow:visible;"/>
		
			<use xlink:href="#g"  width="149.4" height="223.2" x="-74.7" y="-111.6" transform="matrix(0.7995 -0.9993 -0.7995 -0.6995 303.16 346.75)" style="overflow:visible;"/>
		
			<use xlink:href="#g"  width="149.4" height="223.2" x="-74.7" y="-111.6" transform="matrix(0.8994 -0.7995 -0.6995 -0.6995 293.355 341.64)" style="overflow:visible;"/>
		
			<use xlink:href="#g"  width="149.4" height="223.2" x="-74.7" y="-111.6" transform="matrix(0.9993 -0.6995 -0.5996 -0.7995 284.25 335.535)" style="overflow:visible;"/>
		
			<use xlink:href="#g"  width="149.4" height="223.2" x="-74.7" y="-111.6" transform="matrix(1.0993 -0.5996 -0.4997 -0.8994 275.945 328.23)" style="overflow:visible;"/>
		
			<use xlink:href="#g"  width="149.4" height="223.2" x="-74.7" y="-111.6" transform="matrix(1.1992 -0.4997 -0.3997 -0.8994 268.64 320.125)" style="overflow:visible;"/>
		
			<use xlink:href="#g"  width="149.4" height="223.2" x="-74.7" y="-111.6" transform="matrix(1.1992 -0.2998 -0.1999 -0.9993 262.34 311.115)" style="overflow:visible;"/>
		
			<use xlink:href="#g"  width="149.4" height="223.2" x="-74.7" y="-111.6" transform="matrix(1.2991 -0.1999 -9.993307e-02 -0.9993 257.235 301.41)" style="overflow:visible;"/>
		
			<use xlink:href="#g"  width="149.4" height="223.2" x="-74.7" y="-111.6" transform="matrix(1.2991 0 0 -0.9993 253.435 291.1)" style="overflow:visible;"/>
		
			<use xlink:href="#g"  width="149.4" height="223.2" x="-74.7" y="-111.6" transform="matrix(0.7995 -0.9993 -0.7995 -0.6995 286.26 331.35)" style="overflow:visible;"/>
		
			<use xlink:href="#g"  width="149.4" height="223.2" x="-74.7" y="-111.6" transform="matrix(0.8994 -0.7995 -0.6995 -0.6995 276.555 326.34)" style="overflow:visible;"/>
		
			<use xlink:href="#g"  width="149.4" height="223.2" x="-74.7" y="-111.6" transform="matrix(0.9993 -0.6995 -0.5996 -0.7995 267.55 320.135)" style="overflow:visible;"/>
		
			<use xlink:href="#g"  width="149.4" height="223.2" x="-74.7" y="-111.6" transform="matrix(1.0993 -0.5996 -0.4997 -0.8994 259.345 312.93)" style="overflow:visible;"/>
		
			<use xlink:href="#g"  width="149.4" height="223.2" x="-74.7" y="-111.6" transform="matrix(1.1992 -0.4997 -0.3997 -0.8994 252.14 304.725)" style="overflow:visible;"/>
		
			<use xlink:href="#g"  width="149.4" height="223.2" x="-74.7" y="-111.6" transform="matrix(1.1992 -0.2998 -0.1999 -0.9993 245.94 295.715)" style="overflow:visible;"/>
		
			<use xlink:href="#g"  width="149.4" height="223.2" x="-74.7" y="-111.6" transform="matrix(1.2991 -0.1999 -9.993307e-02 -0.9993 240.835 286.01)" style="overflow:visible;"/>
		
			<use xlink:href="#g"  width="149.4" height="223.2" x="-74.7" y="-111.6" transform="matrix(1.2991 0 0 -0.9993 237.035 275.8)" style="overflow:visible;"/>
	</g>
</g>
</svg>
