<svg version="1" xmlns="http://www.w3.org/2000/svg" width="933.333" height="933.333" viewBox="0 0 700 700"><path d="M0 3.9c0 3.5.3 4 3.1 5 3.7 1.3 173.1 95.2 172.6 95.7-.2.2-6.7-.7-14.4-2.1-12.4-2.1-15.5-3.1-25.9-8-6.6-3.1-11.4-5.2-10.9-4.7 1.4 1.3 144.3 87.4 192 115.6 45 26.7 49.4 29.2 48 27.8-.5-.5-29.5-21.4-64.4-46.3l-63.5-45.3-29.3-13.7c-28.4-13.2-33.9-16-27.7-14 1.6.6 6.9 1.7 11.8 2.6 4.9.9 10.8 2.5 13 3.7 2.6 1.3 3.6 1.5 2.6.5-1.3-1.3-92.5-65.7-152.8-107.9L35.9 0H0v3.9zm116.6-3c3.1 2.9 163.2 109.9 168.4 112.6 1.9.9 3.1 1.3 2.5.8-1-1-40.2-33.3-103.8-85.6L148.7 0h-16.5c-9.8 0-16.2.4-15.6.9zm123 0c2.2 2.1 49.7 37.2 48.4 35.8-.8-.8-10.5-9.4-21.4-19.1C247.8 1 246.5 0 242.7 0c-2.4 0-3.7.4-3.1.9zM441 .4c0 .3 21 20.3 57.5 54.6 29.4 27.6 41.1 38.2 54.5 49.5 8.2 6.9 15 12.9 15 13.2 0 .6-1.3-.4-8.9-7.2-1.9-1.6-3.1-2.4-2.7-1.8.4.7 17.4 16.9 37.9 36s41.7 39.1 47.2 44.3c5.5 5.3 16.3 15.4 24 22.5 7.7 7.2 18.6 17.5 24.2 22.9l10.3 9.9V229l-9.2-7.7c-9.7-8.2-14.4-12.5-11.8-10.7.8.6 5.6 4.5 10.7 8.7 5 4.2 9.4 7.7 9.7 7.7.3 0 .6-6.7.6-14.9v-15l-19.5-18.3c-10.7-10.1-19.1-18.4-18.6-18.6.5-.2 8.8 1.5 18.4 3.8 9.7 2.2 18 4 18.7 4 .7 0 1-2.9.8-9.2l-.3-9.2-31.4-6.7c-17.3-3.7-32.2-7.1-33.2-7.6-2.3-1.1-48.1-44.3-47-44.3.5 0 25.8 6.7 56.2 15 30.4 8.2 55.4 15 55.6 15 .2 0 .3-4.9.3-11V99.1l-3.7-1c-2.1-.5-34.2-8.7-71.3-18.1-38.2-9.8-68.4-17.9-69.6-18.9-3.8-3-57.4-53.4-57.1-53.7.2-.2 45.5 14 100.7 31.5l100.5 31.9.3-12.6c.1-6.9-.1-12.9-.5-13.3-.4-.4-34.1-10.7-74.8-22.8L550.5 0h-54.7c-30.2 0-54.8.2-54.8.4zM571.5 120c1 1.1 1.6 2 1.3 2-.3 0-1.3-.9-2.3-2-1-1.1-1.6-2-1.3-2 .3 0 1.3.9 2.3 2zm56.5 47.5c21.1 17.6 28.7 24.2 23.5 20.4-3.5-2.5-45.9-38.1-48-40.3l-2-2 2 1.5c1.1.9 12.1 10 24.5 20.4zM655.5.9c3.9 1.6 43.6 16.1 44.1 16.1.2 0 .4-3.8.4-8.5V0l-23.2.1c-13 0-22.4.4-21.3.8zM0 63.6c0 2.1 1.7 3.2 13 8.9 7.2 3.6 13 6.8 13 7 0 .3-.8.1-1.8-.4s-5.8-1.7-10.8-2.6c-4.9-.8-9.9-1.8-11.1-2.1C.3 74 0 74.4 0 77c0 3.4-1.7 2.9 20.5 7 8.8 1.6 17.1 3.2 18.5 3.5l2.5.5-2.3-1.3c-1.2-.7-1.9-1.6-1.5-2.1.4-.4-.1-.4-1.1 0-1.3.5-1.7.4-1.2-.4s.2-1-.9-.6c-.9.4-1.5.2-1.3-.5.2-.6-7.2-5.8-16.4-11.5C1.2 61.9 0 61.3 0 63.6zm0 33.8v8.4l28.3 14.8c15.5 8.1 42.6 22.2 60.2 31.4 101.4 53 102.9 53.8 147.4 74.2 9.7 4.4 18 8.4 18.4 8.7.4.4-.7.6-2.5.4-2.6-.4-3-.2-1.8.7 4.2 3.1 11.1 5.8 16.5 6.4 4.5.5 10.7 2.8 24.5 9.1 16.7 7.5 32.1 13.8 32.6 13.2.3-.2-4.7-3.4-59.1-38-43.1-27.4-119.2-75-123-76.9C137.5 147.7 1.3 89 .6 89c-.4 0-.6 3.8-.6 8.4zm0 59.8v14.3l62.8 24.7c34.5 13.6 66.1 26.1 70.2 27.7 26.6 10.6 51.3 20.1 51.5 19.9.3-.3-82.9-46.4-132.2-73.4-14.3-7.9-24.6-12.7-34.8-16.4-8-2.9-14.5-5.5-14.5-5.7 0-.3 2.4-.2 5.3.2l5.2.6-4.1-2.4c-2.2-1.3-5.3-2.7-6.7-3.1L0 143v14.2zm69.4 60c3.1 1.6 10.3 2.8 32 5.4 15.5 1.9 28.3 3.4 28.6 3.3.3 0-2.4-1.1-6-2.5-5.1-2-11.5-3.1-29-4.9-12.4-1.4-24.1-2.7-26-2.9l-3.5-.5 3.9 2.1zm-69.4.1c0 1.1 9.9 5.2 10.7 4.4.1-.2-2.2-1.5-5.2-3-3.8-1.8-5.5-2.3-5.5-1.4zm108 17.5c1.4 1 89.5 42.1 115 53.7 6.3 2.9 25.2 11.6 41.9 19.4 27.2 12.6 38.9 17.3 75.6 30.4l10 3.6-5.5.1-5.5.1 3.5 1.8c2.3 1.2 6.8 2 13.1 2.4 6.8.5 11.7 1.4 16.5 3.2 3.8 1.4 6.4 2.2 5.9 1.7-.6-.5-28.7-16.2-62.5-35l-61.5-34-72.5-23.7c-82.4-27-76-25-74-23.7z"/><path d="M2.1 250.4c.2.2 26.5 11.7 58.4 25.4 57.1 24.6 58.5 25.1 90 34.7 17.6 5.3 34.2 10.4 36.8 11.3l4.8 1.7-2.7 1.1c-2 .9-3.9.8-7.3-.1-2.6-.6-5.4-.9-6.4-.6-1.5.6-1.1 1 1.9 2.5l3.8 1.7-14.4 6.5c-7.9 3.5-15 6.4-15.7 6.4-.7 0-1.3-.7-1.3-1.5 0-2-.5-1.9-8.4.9-8.2 2.8-8.2 2.8-30.7-6.8-15.4-6.5-15.5-6.6-61.4-16.1-25.3-5.3-46.8-9.9-47.8-10.1-1.6-.5-1.8.1-1.5 6.2l.3 6.8 11.5 2.7c6.3 1.4 22.5 5.1 36 8.2 13.5 3 35 7.9 47.8 10.9 12.7 2.9 23.2 5.6 23.2 5.9 0 .4-1.1 1-2.5 1.3-1.9.5-2.5 1.3-2.5 3.3 0 2-1.2 3.8-4.2 6.5-3.3 2.9-3.9 3.7-2.4 3.8 1.4 0 .6 1-2.8 3.6-2.6 1.9-4.6 4.1-4.5 4.7.4 2.9-.4 3.7-5.4 5.1-3 .9-6.5 2.5-8 3.6-1.4 1.1-3 2-3.6 2-.6 0-7.3-2.4-14.9-5.4-7.5-2.9-15.9-6.1-18.7-6.9-4.5-1.5-36.7-7-45.8-7.9l-3.7-.4v21.3l7.8 3.1c4.2 1.6 9.6 3.6 12 4.3 2.3.7 4.2 1.5 4.2 1.9 0 .3-4.6 1.6-10.2 2.9-5.7 1.2-11.1 2.5-12.1 2.7-1.6.5-1.7 8.6-1.7 151V699h700V548.9c0-119.7-.3-150-1.2-149.7-24.4 8.8-28.1 10.4-28.6 12-.6 2.3-6.2 4.3-6.2 2.2 0-.7-.5-1.4-1.1-1.4-1.9 0-6.8 3.3-7.1 4.8-.3 1.4-6.1 4-15.1 6.8-3.1 1-6.9 3.5-11.1 7.2-6 5.5-7.4 6.1-13.8 6.4-1.6.1-3.1.9-3.8 2.2-.6 1.2-2.8 3.2-4.8 4.5-2 1.3-6.1 5.2-9.1 8.8l-5.3 6.4-2.2-2c-1.2-1.2-2.9-2.1-3.7-2.1-.8.1-4.7 2-8.8 4.3l-7.4 4.2-2.8 8.4c-1.6 4.6-3.5 9.2-4.4 10.1-.8.9-1.5 3.1-1.5 5 0 1.8-.5 5-1.2 7.2-1 3.4-1.5 3.9-3.5 3.3-1.9-.4-2.3-.1-2.3 1.8 0 1.4-1.6 3.9-4.1 6.2-3.4 3.4-3.9 4.5-3.5 7 .8 4.6-3 8.4-8.3 8.3-2.3 0-4.8.5-5.6 1.2-1 .9-3.2 1-7 .5-3.1-.3-9.8-.6-15-.6-5.2 0-9.5-.4-9.5-.9 0-.4-10.5-.6-23.2-.3l-23.3.6-13.5-5.1c-7.4-2.8-18.9-7.1-25.5-9.6-6.6-2.4-18.8-7-27.2-10.1l-15.1-5.7-.7-9.4c-.4-5.2-1.1-9.7-1.5-9.9-.5-.3-3.6-.8-6.9-1.1l-6.1-.7v-5.3c0-3-.4-5.4-.8-5.4-.5 0-4.1 1.1-8 2.4-4.3 1.5-7.2 2-7.4 1.4-.3-.7-2.3-.6-6.2.2-4.1.8-6.1.9-6.9.1-1-1-2.4-18.1-1.5-18.1.3 0 5.8 1.8 12.4 4.1 12.6 4.3 19.2 6.3 23.7 7.3 1.5.4 2.5 1.1 2.2 1.6-.3.5.7 1.2 2.2 1.5 2.1.5 21.8 7.4 32.1 11.2.7.3 1.2-.3 1.2-1.6 0-1.6.7-2.1 2.8-2.2 2-.1 2.2-.2.7-.6-1.1-.3-2.5-.9-3.2-1.5-.6-.5-7.7-2-15.8-3.3-8.1-1.3-14.9-2.6-15.3-2.9-.3-.3 0-.6.6-.6 1 0 34.7 5.3 41.7 6.6 1.8.3.1-.9-4.3-3-12-5.9-42.4-18.5-46.2-19.2-1.9-.4-4-1.3-4.6-2-.6-.7-4.7-2.9-9.2-4.8-4.4-1.9-9.1-4.1-10.4-4.9-2.3-1.5-8.6-3.3-10-2.9-.5.1-.8-.2-.8-.7 0-.5-2.4-1.9-5.2-3.1-2.9-1.2-8.6-3.8-12.6-5.7-4-1.8-8.4-3.8-9.7-4.3-2.2-.8-2.5-1.6-2.5-6v-5.1l-3.7.5c-2.1.2-5.5 1.2-7.6 2-3.3 1.5-3.8 1.5-4.3.1-.4-.8-1.5-1.5-2.6-1.5s-4.2-.8-6.9-1.7l-4.9-1.8v-25.6l-3.8.4c-2 .3-5.5 1.2-7.6 2.1-4.7 2-4.6 1.9-4.6.1 0-1.8-.9-1.8-8.2-.1l-5.8 1.4V353l5.4 2.4c3 1.3 8 3 11.1 3.7 3 .7 5.1 1.5 4.6 1.9-.6.3 1.8 1.7 5.2 3 3.4 1.3 9.4 3.8 13.2 5.6 3.9 1.7 9.9 4.4 13.5 5.8 3.6 1.5 18 7.6 32 13.6 25 10.7 26 11.1 49.8 16.5 13.4 3 24.6 5.5 24.9 5.5.8 0-63.1-31.7-68.4-33.9-2.6-1.1-11.8-3.4-20.3-5.3-8.5-1.8-14.7-3.4-13.7-3.6.9-.2 1.7-.8 1.7-1.3 0-1.2-1.6-1.1-3.9.2-1.4.9-5 .5-16.7-2-8.2-1.8-15.1-3.5-15.4-3.8-.3-.3 1-.3 2.8 0l3.2.6v-13.8l-5.2-1.5c-12.2-3.4-14.4-3.8-19.5-3.1-5.2.6-5.3.6-5.3-1.9 0-2.6-.1-2.7-11.5-5.5-6.2-1.5-20.7-6-21.3-6.6-1.7-1.7 1.8-1.6 8.1.3 3.9 1.2 13.7 4 21.7 6.3s17.8 5.2 21.9 6.5c4 1.3 7.6 2.4 8 2.4.3 0-11.7-6.1-26.7-13.5S209.7 318 209.4 318c-.2 0-11.5-5.4-25.2-12-24-11.6-25.4-12.2-49.6-18.9-22.3-6.3-31.4-9.3-23.1-7.8 1.7.3 7.1.8 12 1.1 8.1.5 8.7.4 6-.8-1.6-.7-10.1-1.8-18.7-2.5-15.6-1.1-15.9-1.2-61.9-14.1S1.3 249.6 2.1 250.4zm213 92.7c12.7 5.4 12.3 5.1 10.3 6.6-2.4 1.7-3.4 1.6-3.4-.3 0-1.3-.6-1.5-3.2-.9-1.8.3-4.9.9-6.9 1.2l-3.6.5-1-5.1c-.6-2.8-.7-5.1-.3-5.1.4 0 4.1 1.4 8.1 3.1zm198.7 176.4l6.7 2.4h-8.7l-8.8.1v-3.1c0-3.4-.8-3.5 10.8.6zM281.1 252.4c.4.3 113.3 59.2 120.9 63.1 7.4 3.7 4.5 1.8-43-28.5-11.8-7.5-22.5-14.2-23.7-14.9-2.4-1.2-53-20.1-54-20.1-.4 0-.4.2-.2.4z"/><path d="M74.5 346.8c-4.7.8-5 1.3-1.6 2.8 3.8 1.6 4.4 1.4 3.9-1.3-.2-1.2-1-1.7-2.3-1.5zm282.5 3.5c.4.5 90.7 42.4 99.5 46.2 1.6.7 5.7 2.5 9 4s5.7 2.4 5.3 2c-.4-.4-17.3-9.9-37.5-21.2l-36.8-20.4-18-5c-9.9-2.8-18.9-5.3-20-5.6-1.1-.3-1.8-.3-1.5 0zm49 74.4c12.5 5.8 63.9 26.1 67.5 26.7 2.2.4 5.4.9 7 1.2 1.7.2-9.4-5.7-24.5-13.1l-27.5-13.7-12-1.9c-15.6-2.4-17.3-2.3-10.5.8zm99.4 40.3c2.8 1.1 5.1 1.8 5.3 1.6.5-.5-7.4-3.6-9-3.6-.6.1 1 1 3.7 2zm-77.3 16c.7.4 11.5 4.3 23.9 8.7 53.2 19 74.3 26.3 74.7 26 .2-.2-6.8-3.6-15.4-7.5-8.7-3.9-24.6-11.1-35.3-16.2-21.4-10-17.2-8.9-44.9-11.4-2.5-.2-3.8-.1-3 .4z"/></svg>